<svg xmlns="http://www.w3.org/2000/svg" xmlns:xlink="http://www.w3.org/1999/xlink" width="600" height="600" version="1.0">
	<desc>Picture of a blue sphere (circle with 3D highlighting)</desc>
	<defs>
		<radialGradient id="a" fx=".3" fy=".3" gradientUnits="objectBoundingBox">
			<stop offset="0%" style="stop-color:#fff" />
			<stop offset="40%" style="stop-color:#00a" />
			<stop offset="100%" style="stop-color:#007" />
		</radialGradient>
		<radialGradient xlink:href="#c" id="g" cx="102.143" cy="545.934" r="135" fx="102.143" fy="545.934" gradientUnits="userSpaceOnUse" />
		<radialGradient xlink:href="#e" id="i" cx="102.143" cy="545.934" r="135" fx="102.143" fy="545.934" gradientUnits="userSpaceOnUse" />
		<radialGradient xlink:href="#c" id="j" cx="102.143" cy="545.934" r="135" fx="102.143" fy="545.934" gradientUnits="userSpaceOnUse" />
		<radialGradient xlink:href="#e" id="l" cx="102.143" cy="545.934" r="135" fx="102.143" fy="545.934" gradientUnits="userSpaceOnUse" />
		<radialGradient xlink:href="#c" id="m" cx="102.143" cy="545.934" r="135" fx="102.143" fy="545.934" gradientUnits="userSpaceOnUse" />
		<radialGradient xlink:href="#e" id="o" cx="102.143" cy="545.934" r="135" fx="102.143" fy="545.934" gradientUnits="userSpaceOnUse" />
		<radialGradient xlink:href="#c" id="p" cx="102.143" cy="545.934" r="135" fx="102.143" fy="545.934" gradientUnits="userSpaceOnUse" />
		<radialGradient xlink:href="#e" id="r" cx="102.143" cy="545.934" r="135" fx="102.143" fy="545.934" gradientUnits="userSpaceOnUse" />
		<radialGradient xlink:href="#c" id="s" cx="102.143" cy="545.934" r="135" fx="102.143" fy="545.934" gradientUnits="userSpaceOnUse" />
		<radialGradient xlink:href="#e" id="u" cx="102.143" cy="545.934" r="135" fx="102.143" fy="545.934" gradientUnits="userSpaceOnUse" />
		<radialGradient xlink:href="#c" id="v" cx="102.143" cy="545.934" r="135" fx="102.143" fy="545.934" gradientUnits="userSpaceOnUse" />
		<radialGradient xlink:href="#e" id="x" cx="102.143" cy="545.934" r="135" fx="102.143" fy="545.934" gradientUnits="userSpaceOnUse" />
		<linearGradient id="f">
			<stop offset="0" style="stop-color:#770900;stop-opacity:1" />
			<stop offset=".5" style="stop-color:#da101b;stop-opacity:1" />
			<stop offset=".75" style="stop-color:#d2400f;stop-opacity:1" />
			<stop offset=".938" style="stop-color:#d44316;stop-opacity:.614583" />
			<stop offset="1" style="stop-color:#c30000;stop-opacity:.21875" />
		</linearGradient>
		<linearGradient id="e">
			<stop offset="0" style="stop-color:#fff;stop-opacity:1" />
			<stop offset="1" style="stop-color:#fff;stop-opacity:0" />
		</linearGradient>
		<linearGradient id="d">
			<stop offset="0" style="stop-color:#081074;stop-opacity:1" />
			<stop offset=".5" style="stop-color:#5873c2;stop-opacity:1" />
			<stop offset=".75" style="stop-color:#0f99d2;stop-opacity:1" />
			<stop offset=".938" style="stop-color:#1660d4;stop-opacity:.6156863" />
			<stop offset="1" style="stop-color:#414cf6;stop-opacity:.21568628" />
		</linearGradient>
		<linearGradient id="c">
			<stop offset="0" style="stop-color:#999;stop-opacity:1" />
			<stop offset="1" style="stop-color:#999;stop-opacity:0" />
		</linearGradient>
		<linearGradient id="b">
			<stop offset="0" style="stop-color:#000;stop-opacity:1" />
			<stop offset="1" style="stop-color:#000;stop-opacity:0" />
		</linearGradient>
		<linearGradient xlink:href="#d" id="h" x1="154.286" x2="605.714" y1="535.219" y2="535.219" gradientUnits="userSpaceOnUse" />
		<linearGradient xlink:href="#d" id="k" x1="154.286" x2="605.714" y1="535.219" y2="535.219" gradientUnits="userSpaceOnUse" />
		<linearGradient xlink:href="#d" id="n" x1="154.286" x2="605.714" y1="535.219" y2="535.219" gradientUnits="userSpaceOnUse" />
		<linearGradient xlink:href="#d" id="q" x1="154.286" x2="605.714" y1="535.219" y2="535.219" gradientUnits="userSpaceOnUse" />
		<linearGradient xlink:href="#d" id="t" x1="154.286" x2="605.714" y1="535.219" y2="535.219" gradientUnits="userSpaceOnUse" />
		<linearGradient xlink:href="#f" id="w" x1="154.286" x2="605.714" y1="535.219" y2="535.219" gradientUnits="userSpaceOnUse" />
	</defs>
	<path d="M336.616 423.305c-75.373 96.692-165.154 125.4-205.938 124.034" style="fill:none;fill-rule:evenodd;stroke:#0a3f6b;stroke-width:10;stroke-linecap:butt;stroke-linejoin:miter;stroke-miterlimit:4;stroke-dasharray:none;stroke-opacity:1"
		transform="matrix(.86914 0 0 .82868 -24.63 -11.97)" />
	<path d="M498.072 135.483c-208.69 156.277-314.605 192.314-378.927 179.69" style="fill:none;fill-rule:evenodd;stroke:#184086;stroke-width:10;stroke-linecap:butt;stroke-linejoin:miter;stroke-miterlimit:4;stroke-dasharray:none;stroke-opacity:1"
		transform="matrix(.86914 0 0 .82868 -24.63 -11.97)" />
	<path d="M636.463 426.485c-78.013-37.574-145.63-52.283-143.333-287.822-46.099 93.01-77.994 179.166-156.514 287.822-36.96 136.949-19.638 188.76 13.18 216.264"
		style="fill:none;fill-rule:evenodd;stroke:#053f9d;stroke-width:10;stroke-linecap:butt;stroke-linejoin:miter;stroke-miterlimit:4;stroke-dasharray:none;stroke-opacity:1" transform="matrix(.86914 0 0 .82868 -24.63 -11.97)" />
	<path d="M237.143 545.934a135 135 0 1 1-270 0 135 135 0 1 1 270 0z" style="opacity:1;fill:url(#g);fill-opacity:1;stroke:none;stroke-width:1.70000005;stroke-miterlimit:4;stroke-dasharray:none;stroke-opacity:.18947401"
		transform="matrix(.26762 -.08059 .11872 .18165 186.073 459.953)" />
	<path d="M605.714 535.22a225.714 225.714 0 1 1-451.428 0 225.714 225.714 0 1 1 451.428 0z" style="opacity:1;fill:url(#h);fill-opacity:1;stroke:none;stroke-width:1.70000005;stroke-miterlimit:4;stroke-dasharray:none;stroke-opacity:.18947401"
		transform="scale(-.18384 -.16918)rotate(47.705 3483.142 -3389.9)" />
	<path d="M237.143 545.934a135 135 0 1 1-270 0 135 135 0 1 1 270 0z" style="opacity:.87614698;fill:url(#i);fill-opacity:1;stroke:none;stroke-width:1.70000005;stroke-miterlimit:4;stroke-dasharray:none;stroke-opacity:.18947401"
		transform="matrix(.18384 0 0 .16918 248.429 411.841)" />
	<path d="M237.143 545.934a135 135 0 1 1-270 0 135 135 0 1 1 270 0z" style="opacity:1;fill:url(#j);fill-opacity:1;stroke:none;stroke-width:1.70000005;stroke-miterlimit:4;stroke-dasharray:none;stroke-opacity:.18947401"
		transform="matrix(.26762 -.08059 .11872 .18165 434.44 287.329)" />
	<path d="M605.714 535.22a225.714 225.714 0 1 1-451.428 0 225.714 225.714 0 1 1 451.428 0z" style="opacity:1;fill:url(#k);fill-opacity:1;stroke:none;stroke-width:1.70000005;stroke-miterlimit:4;stroke-dasharray:none;stroke-opacity:.18947401"
		transform="scale(-.18384 -.16918)rotate(47.705 1653.77 -4407.5)" />
	<path d="M237.143 545.934a135 135 0 1 1-270 0 135 135 0 1 1 270 0z" style="opacity:.87614698;fill:url(#l);fill-opacity:1;stroke:none;stroke-width:1.70000005;stroke-miterlimit:4;stroke-dasharray:none;stroke-opacity:.18947401"
		transform="matrix(.18384 0 0 .16918 496.796 239.217)" />
	<path d="M237.143 545.934a135 135 0 1 1-270 0 135 135 0 1 1 270 0z" style="opacity:1;fill:url(#m);fill-opacity:1;stroke:none;stroke-width:1.70000005;stroke-miterlimit:4;stroke-dasharray:none;stroke-opacity:.18947401"
		transform="matrix(.26762 -.08059 .11872 .18165 -2.296 383.524)" />
	<path d="M605.714 535.22a225.714 225.714 0 1 1-451.428 0 225.714 225.714 0 1 1 451.428 0z" style="opacity:1;fill:url(#n);fill-opacity:1;stroke:none;stroke-width:1.70000005;stroke-miterlimit:4;stroke-dasharray:none;stroke-opacity:.18947401"
		transform="matrix(-.12371 -.12514 .13598 -.11385 63.18 547.017)" />
	<path d="M237.143 545.934a135 135 0 1 1-270 0 135 135 0 1 1 270 0z" style="opacity:.87614698;fill:url(#o);fill-opacity:1;stroke:none;stroke-width:1.70000005;stroke-miterlimit:4;stroke-dasharray:none;stroke-opacity:.18947401"
		transform="matrix(.18384 0 0 .16918 60.06 335.412)" />
	<path d="M237.143 545.934a135 135 0 1 1-270 0 135 135 0 1 1 270 0z" style="opacity:1;fill:url(#p);fill-opacity:1;stroke:none;stroke-width:1.70000005;stroke-miterlimit:4;stroke-dasharray:none;stroke-opacity:.18947401"
		transform="matrix(.26762 -.08059 .11872 .18165 175.262 286.011)" />
	<path d="M605.714 535.22a225.714 225.714 0 1 1-451.428 0 225.714 225.714 0 1 1 451.428 0z" style="opacity:1;fill:url(#q);fill-opacity:1;stroke:none;stroke-width:1.70000005;stroke-miterlimit:4;stroke-dasharray:none;stroke-opacity:.18947401"
		transform="matrix(-.12371 -.12514 .13598 -.11385 240.737 449.504)" />
	<path d="M237.143 545.934a135 135 0 1 1-270 0 135 135 0 1 1 270 0z" style="opacity:.87614698;fill:url(#r);fill-opacity:1;stroke:none;stroke-width:1.70000005;stroke-miterlimit:4;stroke-dasharray:none;stroke-opacity:.18947401"
		transform="matrix(.18384 0 0 .16918 237.618 237.9)" />
	<path d="M237.143 545.934a135 135 0 1 1-270 0 135 135 0 1 1 270 0z" style="opacity:1;fill:url(#s);fill-opacity:1;stroke:none;stroke-width:1.70000005;stroke-miterlimit:4;stroke-dasharray:none;stroke-opacity:.18947401"
		transform="matrix(.26762 -.08059 .11872 .18165 -18.047 187.18)" />
	<path d="M605.714 535.22a225.714 225.714 0 1 1-451.428 0 225.714 225.714 0 1 1 451.428 0z" style="opacity:1;fill:url(#t);fill-opacity:1;stroke:none;stroke-width:1.70000005;stroke-miterlimit:4;stroke-dasharray:none;stroke-opacity:.18947401"
		transform="matrix(-.12371 -.12514 .13598 -.11385 47.428 350.673)" />
	<path d="M237.143 545.934a135 135 0 1 1-270 0 135 135 0 1 1 270 0z" style="opacity:.87614698;fill:url(#u);fill-opacity:1;stroke:none;stroke-width:1.70000005;stroke-miterlimit:4;stroke-dasharray:none;stroke-opacity:.18947401"
		transform="matrix(.18384 0 0 .16918 44.309 139.069)" />
	<path d="M237.143 545.934a135 135 0 1 1-270 0 135 135 0 1 1 270 0z" style="opacity:1;fill:url(#v);fill-opacity:1;stroke:none;stroke-width:1.70000005;stroke-miterlimit:4;stroke-dasharray:none;stroke-opacity:.18947401"
		transform="matrix(.2781 -.08374 .12337 .18877 312.997 31.028)" />
	<path d="M605.714 535.22a225.714 225.714 0 1 1-451.428 0 225.714 225.714 0 1 1 451.428 0z" style="opacity:1;fill:url(#w);fill-opacity:1;stroke:none;stroke-width:1.70000005;stroke-miterlimit:4;stroke-dasharray:none;stroke-opacity:.18947401"
		transform="matrix(-.12856 -.13004 .1413 -.1183 381.037 200.923)" />
	<path d="M237.143 545.934a135 135 0 1 1-270 0 135 135 0 1 1 270 0z" style="opacity:.87614698;fill:url(#x);fill-opacity:1;stroke:none;stroke-width:1.70000005;stroke-miterlimit:4;stroke-dasharray:none;stroke-opacity:.18947401"
		transform="matrix(.19104 0 0 .1758 377.795 -18.968)" />
</svg>