<?xml version="1.0" encoding="UTF-8" standalone="no"?>
<svg
   xmlns:dc="http://purl.org/dc/elements/1.1/"
   xmlns:cc="http://creativecommons.org/ns#"
   xmlns:rdf="http://www.w3.org/1999/02/22-rdf-syntax-ns#"
   xmlns:svg="http://www.w3.org/2000/svg"
   xmlns="http://www.w3.org/2000/svg"
   xmlns:sodipodi="http://sodipodi.sourceforge.net/DTD/sodipodi-0.dtd"
   xmlns:inkscape="http://www.inkscape.org/namespaces/inkscape"
   version="1.0"
   height="213.33333"
   width="213.33333"
   id="svg2"
   sodipodi:version="0.32"
   inkscape:version="0.92.1 r15371"
   sodipodi:docname="ic_refresh.svg"
   inkscape:output_extension="org.inkscape.output.svg.inkscape"
   inkscape:export-filename="ic_launcher.png"
   inkscape:export-xdpi="5.4420452"
   inkscape:export-ydpi="5.4420452">
  <metadata
     id="metadata29">
    <rdf:RDF>
      <cc:Work
         rdf:about="">
        <dc:format>image/svg+xml</dc:format>
        <dc:type
           rdf:resource="http://purl.org/dc/dcmitype/StillImage" />
        <dc:title> Example showing a blue circle with 3D highlighting effect </dc:title>
      </cc:Work>
    </rdf:RDF>
  </metadata>
  <sodipodi:namedview
     inkscape:window-height="913"
     inkscape:window-width="1270"
     inkscape:pageshadow="2"
     inkscape:pageopacity="0.0"
     guidetolerance="10.0"
     gridtolerance="10.0"
     objecttolerance="10.0"
     borderopacity="1.0"
     bordercolor="#666666"
     pagecolor="#ffffff"
     id="base"
     showgrid="false"
     inkscape:zoom="0.491176"
     inkscape:cx="40.912828"
     inkscape:cy="-158.44961"
     inkscape:window-x="149"
     inkscape:window-y="200"
     inkscape:current-layer="svg2"
     inkscape:window-maximized="0" />
  <title
     id="title4"> Example showing a blue circle with 3D highlighting effect </title>
  <desc
     id="desc6"> Picture of a blue sphere (circle with 3D highlighting) </desc>
  <style
     type="text/css"
     id="style8">
      .Border { fill: lightGray; stroke: black; stroke-width: 4; }
      .Label { font-size:24; font-family:Arial; fill:black; }
   </style>
  <defs
     id="defs10">
    <clipPath
       id="clipPath980">
      <path
         id="path982"
         inkscape:connector-curvature="0"
         d="m 5.38916,28.1929 21.80814,0 0,-24.32864 -21.80814,0 0,24.32864 z" />
    </clipPath>
  </defs>
  <g
     id="g976"
     transform="matrix(8.4468671,0,0,-8.4468671,-32.637394,244.47704)">
    <g
       id="g978" />
    <g
       id="g984">
      <g
         style="opacity:0.80000299"
         id="g986"
         clip-path="url(#clipPath980)">
        <g
           id="g988"
           transform="translate(19.5684,5.6309)">
          <path
             style="fill:#333333;fill-opacity:1;fill-rule:evenodd;stroke:none"
             id="path990"
             inkscape:connector-curvature="0"
             d="m 0,0 c -1.064,-0.334 -2.17,-0.503 -3.269,-0.503 -1.789,0 -3.564,0.462 -5.169,1.324 l -2.422,-2.588 -0.644,7.171 7.592,0.256 -2.73,-2.922 c 1.847,-0.811 3.939,-0.939 5.884,-0.326 3.693,1.166 6.095,4.674 5.842,8.525 l 2.521,0.165 C 7.936,6.085 4.809,1.52 0,0 m 0.094,18.057 c -1.85,0.815 -3.943,0.943 -5.886,0.327 -3.694,-1.163 -6.093,-4.667 -5.844,-8.526 l -2.52,-0.165 c -0.326,5.024 2.801,9.587 7.602,11.103 2.814,0.887 5.86,0.58 8.448,-0.818 l 2.418,2.584 0.645,-7.17 -7.596,-0.253 z" />
        </g>
      </g>
    </g>
  </g>
</svg>
