<svg xmlns="http://www.w3.org/2000/svg" xml:space="preserve" width="64" height="64"><path d="M111.858 93.287 93.524 62.64c-1.854-3.098-4.885-3.097-6.735.001L68.476 93.286c-1.851 3.098-.413 5.633 3.197 5.633h36.993c3.608-.001 5.045-2.535 3.192-5.632zM88.2 73.367c0-1.084.887-1.969 1.969-1.969 1.083 0 1.969.885 1.969 1.969v9.192a1.973 1.973 0 0 1-1.969 1.969 1.974 1.974 0 0 1-1.969-1.969v-9.192zm1.969 19.596a2.624 2.624 0 1 1 0-5.249 2.625 2.625 0 0 1 0 5.249z" style="fill:silver" transform="matrix(1.33793 0 0 1.44444 -88.63 -82.945)"/></svg>