<svg xmlns="http://www.w3.org/2000/svg" xmlns:xlink="http://www.w3.org/1999/xlink" width="492.316" height="582.346" version="1.0"><desc>Picture of a blue sphere (circle with 3D highlighting)</desc><defs><radialGradient xlink:href="#a" id="e" cx="102.143" cy="545.934" r="135" fx="102.143" fy="545.934" gradientUnits="userSpaceOnUse"/><radialGradient xlink:href="#c" id="g" cx="102.143" cy="545.934" r="135" fx="102.143" fy="545.934" gradientUnits="userSpaceOnUse"/><radialGradient xlink:href="#a" id="h" cx="102.143" cy="545.934" r="135" fx="102.143" fy="545.934" gradientUnits="userSpaceOnUse"/><radialGradient xlink:href="#c" id="j" cx="102.143" cy="545.934" r="135" fx="102.143" fy="545.934" gradientUnits="userSpaceOnUse"/><radialGradient xlink:href="#a" id="k" cx="102.143" cy="545.934" r="135" fx="102.143" fy="545.934" gradientUnits="userSpaceOnUse"/><radialGradient xlink:href="#c" id="m" cx="102.143" cy="545.934" r="135" fx="102.143" fy="545.934" gradientUnits="userSpaceOnUse"/><radialGradient xlink:href="#a" id="n" cx="102.143" cy="545.934" r="135" fx="102.143" fy="545.934" gradientUnits="userSpaceOnUse"/><radialGradient xlink:href="#c" id="p" cx="102.143" cy="545.934" r="135" fx="102.143" fy="545.934" gradientUnits="userSpaceOnUse"/><radialGradient xlink:href="#a" id="q" cx="102.143" cy="545.934" r="135" fx="102.143" fy="545.934" gradientUnits="userSpaceOnUse"/><radialGradient xlink:href="#c" id="s" cx="102.143" cy="545.934" r="135" fx="102.143" fy="545.934" gradientUnits="userSpaceOnUse"/><radialGradient xlink:href="#a" id="t" cx="102.143" cy="545.934" r="135" fx="102.143" fy="545.934" gradientUnits="userSpaceOnUse"/><radialGradient xlink:href="#c" id="v" cx="102.143" cy="545.934" r="135" fx="102.143" fy="545.934" gradientUnits="userSpaceOnUse"/><linearGradient id="d"><stop offset="0" style="stop-color:#770900;stop-opacity:1"/><stop offset=".5" style="stop-color:#da101b;stop-opacity:1"/><stop offset=".75" style="stop-color:#d2400f;stop-opacity:1"/><stop offset=".938" style="stop-color:#d44316;stop-opacity:.614583"/><stop offset="1" style="stop-color:#c30000;stop-opacity:.21875"/></linearGradient><linearGradient id="c"><stop offset="0" style="stop-color:#fff;stop-opacity:1"/><stop offset="1" style="stop-color:#fff;stop-opacity:0"/></linearGradient><linearGradient id="b"><stop offset="0" style="stop-color:#081074;stop-opacity:1"/><stop offset=".5" style="stop-color:#5873c2;stop-opacity:1"/><stop offset=".75" style="stop-color:#0f99d2;stop-opacity:1"/><stop offset=".938" style="stop-color:#1660d4;stop-opacity:.6156863"/><stop offset="1" style="stop-color:#414cf6;stop-opacity:.21568628"/></linearGradient><linearGradient id="a"><stop offset="0" style="stop-color:#999;stop-opacity:1"/><stop offset="1" style="stop-color:#999;stop-opacity:0"/></linearGradient><linearGradient xlink:href="#b" id="f" x1="154.286" x2="605.714" y1="535.219" y2="535.219" gradientUnits="userSpaceOnUse"/><linearGradient xlink:href="#b" id="i" x1="154.286" x2="605.714" y1="535.219" y2="535.219" gradientUnits="userSpaceOnUse"/><linearGradient xlink:href="#b" id="l" x1="154.286" x2="605.714" y1="535.219" y2="535.219" gradientUnits="userSpaceOnUse"/><linearGradient xlink:href="#b" id="o" x1="154.286" x2="605.714" y1="535.219" y2="535.219" gradientUnits="userSpaceOnUse"/><linearGradient xlink:href="#b" id="r" x1="154.286" x2="605.714" y1="535.219" y2="535.219" gradientUnits="userSpaceOnUse"/><linearGradient xlink:href="#d" id="u" x1="154.286" x2="605.714" y1="535.219" y2="535.219" gradientUnits="userSpaceOnUse"/></defs><path d="M336.616 423.305c-75.373 96.692-165.154 125.4-205.938 124.034" style="fill:none;stroke:#0a3f6b;stroke-width:10.43808365;stroke-linecap:butt;stroke-linejoin:miter;stroke-miterlimit:4;stroke-opacity:1;stroke-dasharray:none" transform="matrix(.79909 0 0 .82726 -51.79 -60.371)"/><path d="M498.072 135.483c-208.69 156.277-314.605 192.314-378.927 179.69" style="fill:none;stroke:#184086;stroke-width:10.43808365;stroke-linecap:butt;stroke-linejoin:miter;stroke-miterlimit:4;stroke-opacity:1;stroke-dasharray:none" transform="matrix(.79909 0 0 .82726 -51.79 -60.371)"/><path d="M636.463 426.485c-78.013-37.574-145.63-52.283-143.333-287.822-46.099 93.01-77.994 179.166-156.514 287.822-36.96 136.949-19.638 188.76 13.18 216.264" style="fill:none;stroke:#053f9d;stroke-width:10.43808365;stroke-linecap:butt;stroke-linejoin:miter;stroke-miterlimit:4;stroke-opacity:1;stroke-dasharray:none" transform="matrix(.79909 0 0 .82726 -51.79 -60.371)"/><path d="M237.143 545.934c0 74.558-60.442 135-135 135-74.559 0-135-60.442-135-135 0-74.559 60.441-135 135-135 74.558 0 135 60.441 135 135z" style="fill:url(#e);fill-opacity:1;stroke:none" transform="matrix(.24605 -.08045 .10915 .18134 141.928 410.744)"/><path d="M605.714 535.22c0 124.658-101.055 225.714-225.714 225.714-124.659 0-225.714-101.056-225.714-225.715 0-124.658 101.055-225.714 225.714-225.714 124.659 0 225.714 101.056 225.714 225.714z" style="fill:url(#f);fill-opacity:1;stroke:none" transform="matrix(-.11374 -.12493 .12502 -.11365 202.126 573.956)"/><path d="M237.143 545.934c0 74.558-60.442 135-135 135-74.559 0-135-60.442-135-135 0-74.559 60.441-135 135-135 74.558 0 135 60.441 135 135z" style="opacity:.87614698;fill:url(#g);fill-opacity:1;stroke:none" transform="matrix(.16902 0 0 .16889 199.258 362.714)"/><path d="M237.143 545.934c0 74.558-60.442 135-135 135-74.559 0-135-60.442-135-135 0-74.559 60.441-135 135-135 74.558 0 135 60.441 135 135z" style="fill:url(#h);fill-opacity:1;stroke:none" transform="matrix(.24605 -.08045 .10915 .18134 370.275 238.415)"/><path d="M605.714 535.22c0 124.658-101.055 225.714-225.714 225.714-124.659 0-225.714-101.056-225.714-225.715 0-124.658 101.055-225.714 225.714-225.714 124.659 0 225.714 101.056 225.714 225.714z" style="fill:url(#i);fill-opacity:1;stroke:none" transform="scale(-.16902 -.16889)rotate(47.705 1415.77 -4069.138)"/><path d="M237.143 545.934c0 74.558-60.442 135-135 135-74.559 0-135-60.442-135-135 0-74.559 60.441-135 135-135 74.558 0 135 60.441 135 135z" style="opacity:.87614698;fill:url(#j);fill-opacity:1;stroke:none" transform="matrix(.16902 0 0 .16889 427.605 190.386)"/><path d="M237.143 545.934c0 74.558-60.442 135-135 135-74.559 0-135-60.442-135-135 0-74.559 60.441-135 135-135 74.558 0 135 60.441 135 135z" style="fill:url(#k);fill-opacity:1;stroke:none" transform="matrix(.24605 -.08045 .10915 .18134 -31.258 334.445)"/><path d="M605.714 535.22c0 124.658-101.055 225.714-225.714 225.714-124.659 0-225.714-101.056-225.714-225.715 0-124.658 101.055-225.714 225.714-225.714 124.659 0 225.714 101.056 225.714 225.714z" style="fill:url(#l);fill-opacity:1;stroke:none" transform="matrix(-.11374 -.12493 .12502 -.11365 28.94 497.658)"/><path d="M237.143 545.934c0 74.558-60.442 135-135 135-74.559 0-135-60.442-135-135 0-74.559 60.441-135 135-135 74.558 0 135 60.441 135 135z" style="opacity:.87614698;fill:url(#m);fill-opacity:1;stroke:none" transform="matrix(.16902 0 0 .16889 26.072 286.416)"/><path d="M237.143 545.934c0 74.558-60.442 135-135 135-74.559 0-135-60.442-135-135 0-74.559 60.441-135 135-135 74.558 0 135 60.441 135 135z" style="fill:url(#n);fill-opacity:1;stroke:none" transform="matrix(.24605 -.08045 .10915 .18134 131.988 237.1)"/><path d="M605.714 535.22c0 124.658-101.055 225.714-225.714 225.714-124.659 0-225.714-101.056-225.714-225.715 0-124.658 101.055-225.714 225.714-225.714 124.659 0 225.714 101.056 225.714 225.714z" style="fill:url(#o);fill-opacity:1;stroke:none" transform="matrix(-.11374 -.12493 .12502 -.11365 192.186 400.312)"/><path d="M237.143 545.934c0 74.558-60.442 135-135 135-74.559 0-135-60.442-135-135 0-74.559 60.441-135 135-135 74.558 0 135 60.441 135 135z" style="opacity:.87614698;fill:url(#p);fill-opacity:1;stroke:none" transform="matrix(.16902 0 0 .16889 189.318 189.07)"/><path d="M237.143 545.934c0 74.558-60.442 135-135 135-74.559 0-135-60.442-135-135 0-74.559 60.441-135 135-135 74.558 0 135 60.441 135 135z" style="fill:url(#q);fill-opacity:1;stroke:none" transform="matrix(.24605 -.08045 .10915 .18134 -45.74 138.438)"/><path d="M605.714 535.22c0 124.658-101.055 225.714-225.714 225.714-124.659 0-225.714-101.056-225.714-225.715 0-124.658 101.055-225.714 225.714-225.714 124.659 0 225.714 101.056 225.714 225.714z" style="fill:url(#r);fill-opacity:1;stroke:none" transform="matrix(-.11374 -.12493 .12502 -.11365 14.458 301.65)"/><path d="M237.143 545.934c0 74.558-60.442 135-135 135-74.559 0-135-60.442-135-135 0-74.559 60.441-135 135-135 74.558 0 135 60.441 135 135z" style="opacity:.87614698;fill:url(#s);fill-opacity:1;stroke:none" transform="matrix(.16902 0 0 .16889 11.59 90.409)"/><path d="M237.143 545.934c0 74.558-60.442 135-135 135-74.559 0-135-60.442-135-135 0-74.559 60.441-135 135-135 74.558 0 135 60.441 135 135z" style="fill:url(#t);fill-opacity:1;stroke:none" transform="matrix(.25568 -.0836 .11343 .18844 258.621 -17.447)"/><path d="M605.714 535.22c0 124.658-101.055 225.714-225.714 225.714-124.659 0-225.714-101.056-225.714-225.715 0-124.658 101.055-225.714 225.714-225.714 124.659 0 225.714 101.056 225.714 225.714z" style="fill:url(#u);fill-opacity:1;stroke:none" transform="matrix(-.1182 -.12982 .12992 -.1181 321.177 152.157)"/><path d="M237.143 545.934c0 74.558-60.442 135-135 135-74.559 0-135-60.442-135-135 0-74.559 60.441-135 135-135 74.558 0 135 60.441 135 135z" style="opacity:.87614698;fill:url(#v);fill-opacity:1;stroke:none" transform="matrix(.17564 0 0 .1755 318.196 -67.357)"/><text xml:space="preserve" x="103.839" y="558.148" style="font-size:67.3408432px;font-style:normal;font-variant:normal;font-weight:400;font-stretch:normal;text-align:start;line-height:125%;letter-spacing:0;word-spacing:0;writing-mode:lr-tb;text-anchor:start;fill:#002b3d;fill-opacity:1;stroke:none;font-family:Busorama;-inkscape-font-specification:Busorama" transform="scale(.96178 1.03974)"><tspan x="103.839" y="558.148">TREEBOLIC</tspan></text></svg>