<svg xmlns="http://www.w3.org/2000/svg" xmlns:xlink="http://www.w3.org/1999/xlink" width="560" height="600" version="1.0"><desc>Picture of a blue sphere (circle with 3D highlighting)</desc><defs><radialGradient xlink:href="#a" id="e" cx="102.143" cy="545.934" r="135" fx="102.143" fy="545.934" gradientTransform="matrix(.54636 0 0 .44695 -116.493 666.159)" gradientUnits="userSpaceOnUse"/><radialGradient xlink:href="#c" id="g" cx="102.143" cy="545.934" r="135" fx="102.143" fy="545.934" gradientTransform="matrix(.35671 0 0 .35671 353.625 505.643)" gradientUnits="userSpaceOnUse"/><radialGradient xlink:href="#a" id="h" cx="102.143" cy="545.934" r="135" fx="102.143" fy="545.934" gradientTransform="matrix(.54636 0 0 .44695 -116.493 666.159)" gradientUnits="userSpaceOnUse"/><radialGradient xlink:href="#c" id="j" cx="102.143" cy="545.934" r="135" fx="102.143" fy="545.934" gradientTransform="matrix(.35671 0 0 .35671 353.625 505.643)" gradientUnits="userSpaceOnUse"/><radialGradient xlink:href="#a" id="k" cx="102.143" cy="545.934" r="135" fx="102.143" fy="545.934" gradientTransform="matrix(.54636 0 0 .44695 -116.493 666.159)" gradientUnits="userSpaceOnUse"/><radialGradient xlink:href="#c" id="m" cx="102.143" cy="545.934" r="135" fx="102.143" fy="545.934" gradientTransform="matrix(.35671 0 0 .35671 353.625 505.643)" gradientUnits="userSpaceOnUse"/><radialGradient xlink:href="#a" id="n" cx="102.143" cy="545.934" r="135" fx="102.143" fy="545.934" gradientTransform="matrix(.54636 0 0 .44695 -116.493 666.159)" gradientUnits="userSpaceOnUse"/><radialGradient xlink:href="#c" id="p" cx="102.143" cy="545.934" r="135" fx="102.143" fy="545.934" gradientTransform="matrix(.35671 0 0 .35671 353.625 505.643)" gradientUnits="userSpaceOnUse"/><radialGradient xlink:href="#a" id="q" cx="102.143" cy="545.934" r="135" fx="102.143" fy="545.934" gradientTransform="matrix(.54636 0 0 .44695 -116.493 666.159)" gradientUnits="userSpaceOnUse"/><radialGradient xlink:href="#c" id="s" cx="102.143" cy="545.934" r="135" fx="102.143" fy="545.934" gradientTransform="matrix(.35671 0 0 .35671 353.625 505.643)" gradientUnits="userSpaceOnUse"/><radialGradient xlink:href="#a" id="t" cx="102.143" cy="545.934" r="135" fx="102.143" fy="545.934" gradientTransform="matrix(.54636 0 0 .44695 14.059 407.686)" gradientUnits="userSpaceOnUse"/><radialGradient xlink:href="#c" id="v" cx="102.143" cy="545.934" r="135" fx="102.143" fy="545.934" gradientTransform="matrix(.35671 0 0 .35671 344.482 243.548)" gradientUnits="userSpaceOnUse"/><linearGradient id="d"><stop offset="0" style="stop-color:#770900;stop-opacity:1"/><stop offset=".5" style="stop-color:#da101b;stop-opacity:1"/><stop offset=".75" style="stop-color:#d2400f;stop-opacity:1"/><stop offset=".938" style="stop-color:#d44316;stop-opacity:.614583"/><stop offset="1" style="stop-color:#c30000;stop-opacity:.21875"/></linearGradient><linearGradient id="c"><stop offset="0" style="stop-color:#fff;stop-opacity:1"/><stop offset="1" style="stop-color:#fff;stop-opacity:0"/></linearGradient><linearGradient id="b"><stop offset="0" style="stop-color:#081074;stop-opacity:1"/><stop offset=".5" style="stop-color:#5873c2;stop-opacity:1"/><stop offset=".75" style="stop-color:#0f99d2;stop-opacity:1"/><stop offset=".938" style="stop-color:#1660d4;stop-opacity:.6156863"/><stop offset="1" style="stop-color:#414cf6;stop-opacity:.21568628"/></linearGradient><linearGradient id="a"><stop offset="0" style="stop-color:#999;stop-opacity:1"/><stop offset="1" style="stop-color:#999;stop-opacity:0"/></linearGradient><linearGradient xlink:href="#b" id="f" x1="154.286" x2="605.714" y1="535.219" y2="535.219" gradientTransform="matrix(.35671 0 0 .35671 -946.083 -374.467)" gradientUnits="userSpaceOnUse"/><linearGradient xlink:href="#b" id="i" x1="154.286" x2="605.714" y1="535.219" y2="535.219" gradientTransform="matrix(.35671 0 0 .35671 -946.083 -374.467)" gradientUnits="userSpaceOnUse"/><linearGradient xlink:href="#b" id="l" x1="154.286" x2="605.714" y1="535.219" y2="535.219" gradientTransform="matrix(.35671 0 0 .35671 -946.083 -374.467)" gradientUnits="userSpaceOnUse"/><linearGradient xlink:href="#b" id="o" x1="154.286" x2="605.714" y1="535.219" y2="535.219" gradientTransform="matrix(.35671 0 0 .35671 -946.083 -374.467)" gradientUnits="userSpaceOnUse"/><linearGradient xlink:href="#b" id="r" x1="154.286" x2="605.714" y1="535.219" y2="535.219" gradientTransform="matrix(.35671 0 0 .35671 -946.083 -374.467)" gradientUnits="userSpaceOnUse"/><linearGradient xlink:href="#d" id="u" x1="154.286" x2="605.714" y1="535.219" y2="535.219" gradientTransform="matrix(.35671 0 0 .35671 -746.061 -204.852)" gradientUnits="userSpaceOnUse"/></defs><path d="M359.057 451.525C278.66 554.663 182.892 585.285 139.39 583.828" style="fill:none;stroke:#0a3f6b;stroke-width:11.13395596;stroke-linecap:butt;stroke-linejoin:miter;stroke-miterlimit:4;stroke-dasharray:none;stroke-opacity:1" transform="matrix(.79909 0 0 .82726 -37.968 -49.519)"/><path d="M531.277 144.515C308.675 311.211 195.699 349.65 127.088 336.185" style="fill:none;stroke:#184086;stroke-width:11.13395596;stroke-linecap:butt;stroke-linejoin:miter;stroke-miterlimit:4;stroke-dasharray:none;stroke-opacity:1" transform="matrix(.79909 0 0 .82726 -37.968 -49.519)"/><path d="M678.894 454.918c-83.214-40.08-155.338-55.77-152.89-307.01-49.17 99.21-83.193 191.11-166.947 307.01-39.423 146.078-20.947 201.343 14.06 230.681" style="fill:none;stroke:#053f9d;stroke-width:11.13395596;stroke-linecap:butt;stroke-linejoin:miter;stroke-miterlimit:4;stroke-dasharray:none;stroke-opacity:1" transform="matrix(.79909 0 0 .82726 -37.968 -49.519)"/><g transform="matrix(.50542 0 0 .50503 51.087 146.406)"><ellipse cx="-60.686" cy="910.162" rx="73.759" ry="60.338" style="fill:url(#e);fill-opacity:1;stroke:none;stroke-width:.49416181" transform="matrix(.95041 -.31099 .51542 .85694 0 0)"/><circle cx="-810.533" cy="-183.549" r="80.514" style="fill:url(#f);fill-opacity:1;stroke:none;stroke-width:.35670954" transform="rotate(-132.295)"/><circle cx="390.061" cy="700.383" r="48.156" style="opacity:.87614698;fill:url(#g);fill-opacity:1;stroke:none;stroke-width:.35670954"/></g><g transform="matrix(.50542 0 0 .50503 294.657 -37.411)"><ellipse cx="-60.686" cy="910.162" rx="73.759" ry="60.338" style="fill:url(#h);fill-opacity:1;stroke:none;stroke-width:.49416181" transform="matrix(.95041 -.31099 .51542 .85694 0 0)"/><circle cx="-810.533" cy="-183.549" r="80.514" style="fill:url(#i);fill-opacity:1;stroke:none;stroke-width:.35670954" transform="rotate(-132.295)"/><circle cx="390.061" cy="700.383" r="48.156" style="opacity:.87614698;fill:url(#j);fill-opacity:1;stroke:none;stroke-width:.35670954"/></g><g transform="matrix(.50542 0 0 .50503 -133.645 65.022)"><ellipse cx="-60.686" cy="910.162" rx="73.759" ry="60.338" style="fill:url(#k);fill-opacity:1;stroke:none;stroke-width:.49416181" transform="matrix(.95041 -.31099 .51542 .85694 0 0)"/><circle cx="-810.533" cy="-183.549" r="80.514" style="fill:url(#l);fill-opacity:1;stroke:none;stroke-width:.35670954" transform="rotate(-132.295)"/><circle cx="390.061" cy="700.383" r="48.156" style="opacity:.87614698;fill:url(#m);fill-opacity:1;stroke:none;stroke-width:.35670954"/></g><g transform="matrix(.50542 0 0 .50503 40.485 -38.814)"><ellipse cx="-60.686" cy="910.162" rx="73.759" ry="60.338" style="fill:url(#n);fill-opacity:1;stroke:none;stroke-width:.49416181" transform="matrix(.95041 -.31099 .51542 .85694 0 0)"/><circle cx="-810.533" cy="-183.549" r="80.514" style="fill:url(#o);fill-opacity:1;stroke:none;stroke-width:.35670954" transform="rotate(-132.295)"/><circle cx="390.061" cy="700.383" r="48.156" style="opacity:.87614698;fill:url(#p);fill-opacity:1;stroke:none;stroke-width:.35670954"/></g><g transform="matrix(.50542 0 0 .50503 -149.092 -144.053)"><ellipse cx="-60.686" cy="910.162" rx="73.759" ry="60.338" style="fill:url(#q);fill-opacity:1;stroke:none;stroke-width:.49416181" transform="matrix(.95041 -.31099 .51542 .85694 0 0)"/><circle cx="-810.533" cy="-183.549" r="80.514" style="fill:url(#r);fill-opacity:1;stroke:none;stroke-width:.35670954" transform="rotate(-132.295)"/><circle cx="390.061" cy="700.383" r="48.156" style="opacity:.87614698;fill:url(#s);fill-opacity:1;stroke:none;stroke-width:.35670954"/></g><g transform="matrix(.52521 0 0 .5248 175.757 -184.787)"><ellipse cx="69.866" cy="651.689" rx="73.759" ry="60.338" style="fill:url(#t);fill-opacity:1;stroke:none;stroke-width:.49416181" transform="matrix(.95041 -.31099 .51542 .85694 0 0)"/><circle cx="-610.512" cy="-13.935" r="80.514" style="fill:url(#u);fill-opacity:1;stroke:none;stroke-width:.35670954" transform="rotate(-132.295)"/><circle cx="380.918" cy="438.288" r="48.156" style="opacity:.87614698;fill:url(#v);fill-opacity:1;stroke:none;stroke-width:.35670954"/></g></svg>