<svg xmlns="http://www.w3.org/2000/svg" xmlns:xlink="http://www.w3.org/1999/xlink" width="200" height="200" version="1.0">
	<desc>Picture of a blue sphere (circle with 3D highlighting)</desc>
	<defs>
		<radialGradient xlink:href="#a" id="e" cx="102.143" cy="545.934" r="135" fx="102.143" fy="545.934" gradientUnits="userSpaceOnUse" />
		<radialGradient xlink:href="#c" id="g" cx="102.143" cy="545.934" r="135" fx="102.143" fy="545.934" gradientUnits="userSpaceOnUse" />
		<radialGradient xlink:href="#a" id="h" cx="102.143" cy="545.934" r="135" fx="102.143" fy="545.934" gradientUnits="userSpaceOnUse" />
		<radialGradient xlink:href="#c" id="j" cx="102.143" cy="545.934" r="135" fx="102.143" fy="545.934" gradientUnits="userSpaceOnUse" />
		<radialGradient xlink:href="#a" id="k" cx="102.143" cy="545.934" r="135" fx="102.143" fy="545.934" gradientUnits="userSpaceOnUse" />
		<radialGradient xlink:href="#c" id="m" cx="102.143" cy="545.934" r="135" fx="102.143" fy="545.934" gradientUnits="userSpaceOnUse" />
		<radialGradient xlink:href="#a" id="n" cx="102.143" cy="545.934" r="135" fx="102.143" fy="545.934" gradientUnits="userSpaceOnUse" />
		<radialGradient xlink:href="#c" id="p" cx="102.143" cy="545.934" r="135" fx="102.143" fy="545.934" gradientUnits="userSpaceOnUse" />
		<radialGradient xlink:href="#a" id="q" cx="102.143" cy="545.934" r="135" fx="102.143" fy="545.934" gradientUnits="userSpaceOnUse" />
		<radialGradient xlink:href="#c" id="s" cx="102.143" cy="545.934" r="135" fx="102.143" fy="545.934" gradientUnits="userSpaceOnUse" />
		<radialGradient xlink:href="#a" id="t" cx="102.143" cy="545.934" r="135" fx="102.143" fy="545.934" gradientUnits="userSpaceOnUse" />
		<radialGradient xlink:href="#c" id="v" cx="102.143" cy="545.934" r="135" fx="102.143" fy="545.934" gradientUnits="userSpaceOnUse" />
		<linearGradient id="d">
			<stop offset="0" style="stop-color:#770900;stop-opacity:1" />
			<stop offset=".5" style="stop-color:#da101b;stop-opacity:1" />
			<stop offset=".75" style="stop-color:#d2400f;stop-opacity:1" />
			<stop offset=".938" style="stop-color:#d44316;stop-opacity:.614583" />
			<stop offset="1" style="stop-color:#c30000;stop-opacity:.21875" />
		</linearGradient>
		<linearGradient id="c">
			<stop offset="0" style="stop-color:#fff;stop-opacity:1" />
			<stop offset="1" style="stop-color:#fff;stop-opacity:0" />
		</linearGradient>
		<linearGradient id="b">
			<stop offset="0" style="stop-color:#081074;stop-opacity:1" />
			<stop offset=".5" style="stop-color:#5873c2;stop-opacity:1" />
			<stop offset=".75" style="stop-color:#0f99d2;stop-opacity:1" />
			<stop offset=".938" style="stop-color:#1660d4;stop-opacity:.6156863" />
			<stop offset="1" style="stop-color:#414cf6;stop-opacity:.21568628" />
		</linearGradient>
		<linearGradient id="a">
			<stop offset="0" style="stop-color:#999;stop-opacity:1" />
			<stop offset="1" style="stop-color:#999;stop-opacity:0" />
		</linearGradient>
		<linearGradient xlink:href="#b" id="f" x1="154.286" x2="605.714" y1="535.219" y2="535.219" gradientUnits="userSpaceOnUse" />
		<linearGradient xlink:href="#b" id="i" x1="154.286" x2="605.714" y1="535.219" y2="535.219" gradientUnits="userSpaceOnUse" />
		<linearGradient xlink:href="#b" id="l" x1="154.286" x2="605.714" y1="535.219" y2="535.219" gradientUnits="userSpaceOnUse" />
		<linearGradient xlink:href="#b" id="o" x1="154.286" x2="605.714" y1="535.219" y2="535.219" gradientUnits="userSpaceOnUse" />
		<linearGradient xlink:href="#b" id="r" x1="154.286" x2="605.714" y1="535.219" y2="535.219" gradientUnits="userSpaceOnUse" />
		<linearGradient xlink:href="#d" id="u" x1="154.286" x2="605.714" y1="535.219" y2="535.219" gradientUnits="userSpaceOnUse" />
	</defs>
	<path d="M-.211 85.031H201.37v116.03H-.211z" style="fill:#d40000;fill-opacity:1;fill-rule:evenodd;stroke:none" transform="rotate(.026)skewX(-.03)" />
	<text xml:space="preserve" x="98.048" y="162.173"
		style="font-style:normal;font-variant:normal;font-weight:400;font-stretch:normal;line-height:0%;font-family:Busorama;-inkscape-font-specification:Busorama;text-align:center;writing-mode:lr-tb;text-anchor:middle;fill:snow;fill-opacity:1;fill-rule:evenodd;stroke:#fff;stroke-width:1;stroke-miterlimit:4;stroke-dasharray:none;stroke-opacity:1"
		transform="scale(1.02376 .97679)"><tspan x="98.048" y="162.173" style="font-size:84.2956px;line-height:1.25;stroke-width:1">TEXT</tspan></text>
	<path d="M336.616 423.305c-75.373 96.692-165.154 125.4-205.938 124.034" style="fill:none;stroke:#0a3f6b;stroke-width:15.72805977;stroke-linecap:butt;stroke-linejoin:miter;stroke-miterlimit:4;stroke-opacity:1;stroke-dasharray:none"
		transform="matrix(.19473 0 0 .18684 29.457 -8.155)" />
	<path d="M498.072 135.483c-208.69 156.277-314.605 192.314-378.927 179.69" style="fill:none;stroke:#184086;stroke-width:15.72805977;stroke-linecap:butt;stroke-linejoin:miter;stroke-miterlimit:4;stroke-opacity:1;stroke-dasharray:none"
		transform="matrix(.19473 0 0 .18684 29.457 -8.155)" />
	<path d="M636.463 426.485c-78.013-37.574-145.63-52.283-143.333-287.822-46.099 93.01-77.994 179.166-156.514 287.822-36.96 136.949-19.638 188.76 13.18 216.264"
		style="fill:none;stroke:#053f9d;stroke-width:15.72805977;stroke-linecap:butt;stroke-linejoin:miter;stroke-miterlimit:4;stroke-opacity:1;stroke-dasharray:none" transform="matrix(.19473 0 0 .18684 29.457 -8.155)" />
	<path d="M237.143 545.934c0 74.558-60.442 135-135 135-74.559 0-135-60.442-135-135 0-74.559 60.441-135 135-135 74.558 0 135 60.441 135 135z" style="fill:url(#e);fill-opacity:1;stroke:none"
		transform="matrix(.05996 -.01817 .0266 .04096 76.664 98.246)" />
	<path d="M605.714 535.22c0 124.658-101.055 225.714-225.714 225.714-124.659 0-225.714-101.056-225.714-225.715 0-124.658 101.055-225.714 225.714-225.714 124.659 0 225.714 101.056 225.714 225.714z" style="fill:url(#f);fill-opacity:1;stroke:none"
		transform="matrix(-.02772 -.02821 .03047 -.02567 91.333 135.108)" />
	<path d="M237.143 545.934c0 74.558-60.442 135-135 135-74.559 0-135-60.442-135-135 0-74.559 60.441-135 135-135 74.558 0 135 60.441 135 135z" style="opacity:.87614698;fill:url(#g);fill-opacity:1;stroke:none"
		transform="matrix(.04119 0 0 .03814 90.635 87.399)" />
	<path d="M237.143 545.934c0 74.558-60.442 135-135 135-74.559 0-135-60.442-135-135 0-74.559 60.441-135 135-135 74.558 0 135 60.441 135 135z" style="fill:url(#h);fill-opacity:1;stroke:none"
		transform="matrix(.05996 -.01817 .0266 .04096 132.31 59.326)" />
	<path d="M605.714 535.22c0 124.658-101.055 225.714-225.714 225.714-124.659 0-225.714-101.056-225.714-225.715 0-124.658 101.055-225.714 225.714-225.714 124.659 0 225.714 101.056 225.714 225.714z" style="fill:url(#i);fill-opacity:1;stroke:none"
		transform="matrix(-.02772 -.02821 .03047 -.02567 146.98 96.187)" />
	<path d="M237.143 545.934c0 74.558-60.442 135-135 135-74.559 0-135-60.442-135-135 0-74.559 60.441-135 135-135 74.558 0 135 60.441 135 135z" style="opacity:.87614698;fill:url(#j);fill-opacity:1;stroke:none"
		transform="matrix(.04119 0 0 .03814 146.28 48.478)" />
	<path d="M237.143 545.934c0 74.558-60.442 135-135 135-74.559 0-135-60.442-135-135 0-74.559 60.441-135 135-135 74.558 0 135 60.441 135 135z" style="fill:url(#k);fill-opacity:1;stroke:none" transform="matrix(.05996 -.01817 .0266 .04096 34.46 81.014)" />
	<path d="M605.714 535.22c0 124.658-101.055 225.714-225.714 225.714-124.659 0-225.714-101.056-225.714-225.715 0-124.658 101.055-225.714 225.714-225.714 124.659 0 225.714 101.056 225.714 225.714z" style="fill:url(#l);fill-opacity:1;stroke:none"
		transform="matrix(-.02772 -.02821 .03047 -.02567 49.13 117.876)" />
	<path d="M237.143 545.934c0 74.558-60.442 135-135 135-74.559 0-135-60.442-135-135 0-74.559 60.441-135 135-135 74.558 0 135 60.441 135 135z" style="opacity:.87614698;fill:url(#m);fill-opacity:1;stroke:none"
		transform="matrix(.04119 0 0 .03814 48.431 70.167)" />
	<path d="M237.143 545.934c0 74.558-60.442 135-135 135-74.559 0-135-60.442-135-135 0-74.559 60.441-135 135-135 74.558 0 135 60.441 135 135z" style="fill:url(#n);fill-opacity:1;stroke:none"
		transform="matrix(.05996 -.01817 .0266 .04096 74.242 59.029)" />
	<path d="M605.714 535.22c0 124.658-101.055 225.714-225.714 225.714-124.659 0-225.714-101.056-225.714-225.715 0-124.658 101.055-225.714 225.714-225.714 124.659 0 225.714 101.056 225.714 225.714z" style="fill:url(#o);fill-opacity:1;stroke:none"
		transform="matrix(-.02772 -.02821 .03047 -.02567 88.911 95.89)" />
	<path d="M237.143 545.934c0 74.558-60.442 135-135 135-74.559 0-135-60.442-135-135 0-74.559 60.441-135 135-135 74.558 0 135 60.441 135 135z" style="opacity:.87614698;fill:url(#p);fill-opacity:1;stroke:none"
		transform="matrix(.04119 0 0 .03814 88.212 48.181)" />
	<path d="M237.143 545.934c0 74.558-60.442 135-135 135-74.559 0-135-60.442-135-135 0-74.559 60.441-135 135-135 74.558 0 135 60.441 135 135z" style="fill:url(#q);fill-opacity:1;stroke:none"
		transform="matrix(.05996 -.01817 .0266 .04096 30.931 36.746)" />
	<path d="M605.714 535.22c0 124.658-101.055 225.714-225.714 225.714-124.659 0-225.714-101.056-225.714-225.715 0-124.658 101.055-225.714 225.714-225.714 124.659 0 225.714 101.056 225.714 225.714z" style="fill:url(#r);fill-opacity:1;stroke:none"
		transform="matrix(-.02772 -.02821 .03047 -.02567 45.601 73.608)" />
	<path d="M237.143 545.934c0 74.558-60.442 135-135 135-74.559 0-135-60.442-135-135 0-74.559 60.441-135 135-135 74.558 0 135 60.441 135 135z" style="opacity:.87614698;fill:url(#s);fill-opacity:1;stroke:none"
		transform="matrix(.04119 0 0 .03814 44.902 25.899)" />
	<path d="M237.143 545.934c0 74.558-60.442 135-135 135-74.559 0-135-60.442-135-135 0-74.559 60.441-135 135-135 74.558 0 135 60.441 135 135z" style="fill:url(#t);fill-opacity:1;stroke:none" transform="matrix(.0623 -.01888 .02764 .04256 105.1 1.54)" />
	<path d="M605.714 535.22c0 124.658-101.055 225.714-225.714 225.714-124.659 0-225.714-101.056-225.714-225.715 0-124.658 101.055-225.714 225.714-225.714 124.659 0 225.714 101.056 225.714 225.714z" style="fill:url(#u);fill-opacity:1;stroke:none"
		transform="matrix(-.0288 -.02932 .03166 -.02667 120.345 39.844)" />
	<path d="M237.143 545.934c0 74.558-60.442 135-135 135-74.559 0-135-60.442-135-135 0-74.559 60.441-135 135-135 74.558 0 135 60.441 135 135z" style="opacity:.87614698;fill:url(#v);fill-opacity:1;stroke:none"
		transform="matrix(.0428 0 0 .03964 119.619 -9.733)" />
	<text xml:space="preserve" x="68.527" y="273.04"
		style="font-style:normal;font-variant:normal;font-weight:400;font-stretch:normal;line-height:0%;font-family:&quot;DejaVu Sans&quot;;-inkscape-font-specification:&quot;DejaVu Sans&quot;;text-align:center;writing-mode:lr-tb;text-anchor:middle;fill:snow;fill-opacity:1;fill-rule:evenodd;stroke:#fff;stroke-width:1;stroke-miterlimit:4;stroke-dasharray:none;stroke-opacity:1"
		transform="scale(1.4152 .70661)"><tspan x="68.527" y="273.04" style="font-size:42.1619px;line-height:1.25;stroke-width:1">indent</tspan></text>
</svg>